<mxfile host="app.diagrams.net" agent="Mozilla/5.0 (Windows NT 10.0; Win64; x64) AppleWebKit/537.36 (KHTML, like Gecko) Chrome/136.0.0.0 Safari/537.36 Edg/136.0.0.0" version="27.1.4">
  <diagram name="Page-1" id="zunORlT1O7iowVO2a8UD">
    <mxGraphModel dx="2993" dy="675" grid="0" gridSize="10" guides="1" tooltips="1" connect="1" arrows="1" fold="1" page="1" pageScale="1" pageWidth="850" pageHeight="1100" math="0" shadow="0">
      <root>
        <mxCell id="0" />
        <mxCell id="1" parent="0" />
        <mxCell id="nLBTFklPhLYW6B8ExNoQ-1" value="" style="shape=cube;whiteSpace=wrap;html=1;boundedLbl=1;backgroundOutline=1;darkOpacity=0.05;darkOpacity2=0.1;size=110;direction=east;flipH=1;fillColor=light-dark(#ffdddb, #512d2b);strokeColor=#b85450;fontSize=6;fontFamily=Verdana;" parent="1" vertex="1">
          <mxGeometry x="-1560" y="92.56" width="110" height="317.44" as="geometry" />
        </mxCell>
        <mxCell id="nLBTFklPhLYW6B8ExNoQ-2" value="" style="shape=cube;whiteSpace=wrap;html=1;boundedLbl=1;backgroundOutline=1;darkOpacity=0.05;darkOpacity2=0.1;size=30;direction=east;flipH=1;fillColor=#ffe6cc;strokeColor=#d79b00;fontSize=6;fontFamily=Verdana;" parent="1" vertex="1">
          <mxGeometry x="-1530" y="206.14" width="90" height="90.28" as="geometry" />
        </mxCell>
        <mxCell id="nLBTFklPhLYW6B8ExNoQ-117" value="" style="shape=cube;whiteSpace=wrap;html=1;boundedLbl=1;backgroundOutline=1;darkOpacity=0.05;darkOpacity2=0.1;size=20;direction=east;flipH=1;fillColor=#fff2cc;strokeColor=#d6b656;fontSize=6;fontFamily=Verdana;" parent="1" vertex="1">
          <mxGeometry x="-1464" y="221.25" width="80" height="60" as="geometry" />
        </mxCell>
        <mxCell id="nLBTFklPhLYW6B8ExNoQ-118" value="" style="shape=cube;whiteSpace=wrap;html=1;boundedLbl=1;backgroundOutline=1;darkOpacity=0.05;darkOpacity2=0.1;size=20;direction=east;flipH=1;fillColor=#d5e8d4;strokeColor=#82b366;fontSize=6;fontFamily=Verdana;" parent="1" vertex="1">
          <mxGeometry x="-1445" y="565" width="80" height="60" as="geometry" />
        </mxCell>
        <mxCell id="nLBTFklPhLYW6B8ExNoQ-119" value="" style="shape=cube;whiteSpace=wrap;html=1;boundedLbl=1;backgroundOutline=1;darkOpacity=0.05;darkOpacity2=0.1;size=16;direction=east;flipH=1;fillColor=#d5e8d4;strokeColor=#82b366;fontSize=6;fontFamily=Verdana;" parent="1" vertex="1">
          <mxGeometry x="-1380" y="571.94" width="110" height="46" as="geometry" />
        </mxCell>
        <mxCell id="nLBTFklPhLYW6B8ExNoQ-120" value="" style="shape=cube;whiteSpace=wrap;html=1;boundedLbl=1;backgroundOutline=1;darkOpacity=0.05;darkOpacity2=0.1;size=9;direction=east;flipH=1;fillColor=#d5e8d4;strokeColor=#82b366;fontSize=6;fontFamily=Verdana;" parent="1" vertex="1">
          <mxGeometry x="-1278" y="580.44" width="130" height="29" as="geometry" />
        </mxCell>
        <mxCell id="nLBTFklPhLYW6B8ExNoQ-121" value="" style="shape=cube;whiteSpace=wrap;html=1;boundedLbl=1;backgroundOutline=1;darkOpacity=0.05;darkOpacity2=0.1;size=5;direction=east;flipH=1;fillColor=#d5e8d4;strokeColor=#82b366;fontSize=6;fontFamily=Verdana;" parent="1" vertex="1">
          <mxGeometry x="-1151" y="584.94" width="175" height="20" as="geometry" />
        </mxCell>
        <mxCell id="nLBTFklPhLYW6B8ExNoQ-126" value="128x128x1" style="text;html=1;strokeColor=none;fillColor=none;align=center;verticalAlign=middle;whiteSpace=wrap;rounded=0;fontSize=15;fontFamily=Verdana;" parent="1" vertex="1">
          <mxGeometry x="-1578" y="407" width="42" height="29.06" as="geometry" />
        </mxCell>
        <mxCell id="nLBTFklPhLYW6B8ExNoQ-127" value="64x64x64" style="text;html=1;strokeColor=none;fillColor=none;align=center;verticalAlign=middle;whiteSpace=wrap;rounded=0;fontSize=12;fontFamily=Verdana;" parent="1" vertex="1">
          <mxGeometry x="-1552" y="294.00000000000006" width="99" height="29.06" as="geometry" />
        </mxCell>
        <mxCell id="nLBTFklPhLYW6B8ExNoQ-128" value="32x32x64" style="text;html=1;strokeColor=none;fillColor=none;align=center;verticalAlign=middle;whiteSpace=wrap;rounded=0;fontSize=12;fontFamily=Verdana;" parent="1" vertex="1">
          <mxGeometry x="-1482" y="274.06" width="99" height="29.06" as="geometry" />
        </mxCell>
        <mxCell id="nLBTFklPhLYW6B8ExNoQ-129" value="32x32x64" style="text;html=1;strokeColor=none;fillColor=none;align=center;verticalAlign=middle;whiteSpace=wrap;rounded=0;fontSize=6;fontFamily=Verdana;" parent="1" vertex="1">
          <mxGeometry x="-1468" y="625" width="99" height="29.06" as="geometry" />
        </mxCell>
        <mxCell id="nLBTFklPhLYW6B8ExNoQ-130" value="16x16x128" style="text;html=1;strokeColor=none;fillColor=none;align=center;verticalAlign=middle;whiteSpace=wrap;rounded=0;fontSize=6;fontFamily=Verdana;" parent="1" vertex="1">
          <mxGeometry x="-1386" y="615" width="99" height="29.06" as="geometry" />
        </mxCell>
        <mxCell id="nLBTFklPhLYW6B8ExNoQ-131" value="8x8x256" style="text;html=1;strokeColor=none;fillColor=none;align=center;verticalAlign=middle;whiteSpace=wrap;rounded=0;fontSize=6;fontFamily=Verdana;" parent="1" vertex="1">
          <mxGeometry x="-1268" y="604.94" width="99" height="29.06" as="geometry" />
        </mxCell>
        <mxCell id="nLBTFklPhLYW6B8ExNoQ-132" value="4x4x512" style="text;html=1;strokeColor=none;fillColor=none;align=center;verticalAlign=middle;whiteSpace=wrap;rounded=0;fontSize=6;fontFamily=Verdana;" parent="1" vertex="1">
          <mxGeometry x="-1115" y="604.9399999999999" width="99" height="29.06" as="geometry" />
        </mxCell>
        <mxCell id="nLBTFklPhLYW6B8ExNoQ-135" value="1" style="text;html=1;strokeColor=none;fillColor=none;align=center;verticalAlign=middle;whiteSpace=wrap;rounded=0;fontSize=6;fontFamily=Verdana;" parent="1" vertex="1">
          <mxGeometry x="-780.5" y="192.19" width="99" height="29.06" as="geometry" />
        </mxCell>
        <mxCell id="cS9d9mgXsJHrbwHI3K9Y-1" value="" style="shape=cube;whiteSpace=wrap;html=1;boundedLbl=1;backgroundOutline=1;darkOpacity=0.05;darkOpacity2=0.1;size=6;direction=east;flipH=1;fillColor=#d5e8d4;strokeColor=#82b366;fontSize=6;fontFamily=Verdana;" vertex="1" parent="1">
          <mxGeometry x="-1400" y="244.75" width="97" height="15.15" as="geometry" />
        </mxCell>
        <mxCell id="nLBTFklPhLYW6B8ExNoQ-122" value="" style="shape=cube;whiteSpace=wrap;html=1;boundedLbl=1;backgroundOutline=1;darkOpacity=0.05;darkOpacity2=0.1;size=2;direction=east;flipH=1;fillColor=#dae8fc;strokeColor=#6c8ebf;fontSize=6;fontFamily=Verdana;" parent="1" vertex="1">
          <mxGeometry x="-1306" y="247.33" width="125" height="8.67" as="geometry" />
        </mxCell>
        <mxCell id="nLBTFklPhLYW6B8ExNoQ-123" value="" style="shape=cube;whiteSpace=wrap;html=1;boundedLbl=1;backgroundOutline=1;darkOpacity=0.05;darkOpacity2=0.1;size=2;direction=east;flipH=1;fillColor=#e1d5e7;strokeColor=#9673a6;fontSize=6;fontFamily=Verdana;" parent="1" vertex="1">
          <mxGeometry x="-1181" y="248.17" width="30" height="7" as="geometry" />
        </mxCell>
        <mxCell id="nLBTFklPhLYW6B8ExNoQ-124" value="" style="shape=cube;whiteSpace=wrap;html=1;boundedLbl=1;backgroundOutline=1;darkOpacity=0.05;darkOpacity2=0.1;size=2;direction=east;flipH=1;fillColor=#e1d5e7;strokeColor=#9673a6;fontSize=6;fontFamily=Verdana;" parent="1" vertex="1">
          <mxGeometry x="-1151" y="248.58" width="7" height="6.18" as="geometry" />
        </mxCell>
        <mxCell id="cS9d9mgXsJHrbwHI3K9Y-4" style="edgeStyle=orthogonalEdgeStyle;rounded=0;orthogonalLoop=1;jettySize=auto;html=1;exitX=0;exitY=0;exitDx=0;exitDy=0;exitPerimeter=0;entryX=-0.043;entryY=0.09;entryDx=0;entryDy=0;entryPerimeter=0;fontSize=6;fontFamily=Verdana;" edge="1" parent="1" source="nLBTFklPhLYW6B8ExNoQ-124" target="nLBTFklPhLYW6B8ExNoQ-124">
          <mxGeometry relative="1" as="geometry" />
        </mxCell>
        <mxCell id="cS9d9mgXsJHrbwHI3K9Y-5" value="" style="group;fontSize=8;fontFamily=Verdana;" vertex="1" connectable="0" parent="1">
          <mxGeometry x="-1339" y="341" width="220" height="66" as="geometry" />
        </mxCell>
        <mxCell id="nLBTFklPhLYW6B8ExNoQ-20" value="" style="shape=cube;whiteSpace=wrap;html=1;boundedLbl=1;backgroundOutline=1;darkOpacity=0.05;darkOpacity2=0.1;size=7;direction=east;flipH=1;fillColor=#f8cecc;strokeColor=#b85450;fontSize=8;fontFamily=Verdana;" parent="cS9d9mgXsJHrbwHI3K9Y-5" vertex="1">
          <mxGeometry y="2.2844360725217783" width="26.82926829268293" height="15.540381445726396" as="geometry" />
        </mxCell>
        <mxCell id="nLBTFklPhLYW6B8ExNoQ-21" value="" style="shape=cube;whiteSpace=wrap;html=1;boundedLbl=1;backgroundOutline=1;darkOpacity=0.05;darkOpacity2=0.1;size=7;direction=east;flipH=1;fillColor=#ffe6cc;strokeColor=#d79b00;fontSize=8;fontFamily=Verdana;" parent="cS9d9mgXsJHrbwHI3K9Y-5" vertex="1">
          <mxGeometry y="25.595008241111373" width="26.82926829268293" height="15.540381445726396" as="geometry" />
        </mxCell>
        <mxCell id="nLBTFklPhLYW6B8ExNoQ-22" value="" style="shape=cube;whiteSpace=wrap;html=1;boundedLbl=1;backgroundOutline=1;darkOpacity=0.05;darkOpacity2=0.1;size=7;direction=east;flipH=1;fillColor=#fff2cc;strokeColor=#d6b656;fontSize=8;fontFamily=Verdana;" parent="cS9d9mgXsJHrbwHI3K9Y-5" vertex="1">
          <mxGeometry y="48.90558040970097" width="26.82926829268293" height="15.540381445726396" as="geometry" />
        </mxCell>
        <mxCell id="nLBTFklPhLYW6B8ExNoQ-44" value="Input" style="text;html=1;strokeColor=none;fillColor=none;align=left;verticalAlign=middle;whiteSpace=wrap;rounded=0;fontStyle=1;fontSize=8;fontFamily=Verdana;" parent="cS9d9mgXsJHrbwHI3K9Y-5" vertex="1">
          <mxGeometry x="36.66666666666667" y="-1" width="123.41463414634146" height="18.555215446197316" as="geometry" />
        </mxCell>
        <mxCell id="nLBTFklPhLYW6B8ExNoQ-45" value="TFConvBlock" style="text;html=1;strokeColor=none;fillColor=none;align=left;verticalAlign=middle;whiteSpace=wrap;rounded=0;fontStyle=1;fontSize=8;fontFamily=Verdana;" parent="cS9d9mgXsJHrbwHI3K9Y-5" vertex="1">
          <mxGeometry x="36.66666666666667" y="23.31057216858959" width="123.41463414634146" height="18.555215446197316" as="geometry" />
        </mxCell>
        <mxCell id="nLBTFklPhLYW6B8ExNoQ-46" value="MaxPooling" style="text;html=1;strokeColor=none;fillColor=none;align=left;verticalAlign=middle;whiteSpace=wrap;rounded=0;fontStyle=1;fontSize=8;fontFamily=Verdana;" parent="cS9d9mgXsJHrbwHI3K9Y-5" vertex="1">
          <mxGeometry x="36.66666666666667" y="47.444784553802684" width="123.41463414634146" height="18.555215446197316" as="geometry" />
        </mxCell>
        <mxCell id="nLBTFklPhLYW6B8ExNoQ-136" value="" style="shape=cube;whiteSpace=wrap;html=1;boundedLbl=1;backgroundOutline=1;darkOpacity=0.05;darkOpacity2=0.1;size=7;direction=east;flipH=1;fillColor=#d5e8d4;strokeColor=#82b366;fontSize=8;fontFamily=Verdana;" parent="cS9d9mgXsJHrbwHI3K9Y-5" vertex="1">
          <mxGeometry x="100.16260162601628" y="2.2844360725217783" width="26.82926829268293" height="15.540381445726396" as="geometry" />
        </mxCell>
        <mxCell id="nLBTFklPhLYW6B8ExNoQ-137" value="" style="shape=cube;whiteSpace=wrap;html=1;boundedLbl=1;backgroundOutline=1;darkOpacity=0.05;darkOpacity2=0.1;size=7;direction=east;flipH=1;fillColor=#dae8fc;strokeColor=#6c8ebf;fontSize=8;fontFamily=Verdana;" parent="cS9d9mgXsJHrbwHI3K9Y-5" vertex="1">
          <mxGeometry x="100.16260162601628" y="25.595008241111373" width="26.82926829268293" height="15.540381445726396" as="geometry" />
        </mxCell>
        <mxCell id="nLBTFklPhLYW6B8ExNoQ-138" value="" style="shape=cube;whiteSpace=wrap;html=1;boundedLbl=1;backgroundOutline=1;darkOpacity=0.05;darkOpacity2=0.1;size=7;direction=east;flipH=1;fillColor=#e1d5e7;strokeColor=#9673a6;fontSize=8;fontFamily=Verdana;" parent="cS9d9mgXsJHrbwHI3K9Y-5" vertex="1">
          <mxGeometry x="100.16260162601628" y="48.90558040970097" width="26.82926829268293" height="15.540381445726396" as="geometry" />
        </mxCell>
        <mxCell id="nLBTFklPhLYW6B8ExNoQ-140" value="&lt;div&gt;&lt;font&gt;4 ResStages&lt;/font&gt;&lt;/div&gt;&lt;div&gt;&lt;font&gt;(2 block/stage)&lt;/font&gt;&lt;/div&gt;" style="text;html=1;strokeColor=none;fillColor=none;align=left;verticalAlign=middle;whiteSpace=wrap;rounded=0;fontStyle=1;fontSize=8;fontFamily=Verdana;" parent="cS9d9mgXsJHrbwHI3K9Y-5" vertex="1">
          <mxGeometry x="136.82926829268294" width="76.91056910569107" height="18.555215446197316" as="geometry" />
        </mxCell>
        <mxCell id="nLBTFklPhLYW6B8ExNoQ-141" value="&lt;font&gt;MaxPooling&lt;/font&gt;" style="text;html=1;strokeColor=none;fillColor=none;align=left;verticalAlign=middle;whiteSpace=wrap;rounded=0;fontStyle=1;fontSize=8;fontFamily=Verdana;" parent="cS9d9mgXsJHrbwHI3K9Y-5" vertex="1">
          <mxGeometry x="136.82926829268294" y="22.31057216858959" width="76.91056910569107" height="18.555215446197316" as="geometry" />
        </mxCell>
        <mxCell id="nLBTFklPhLYW6B8ExNoQ-142" value="&lt;font&gt;Dense+Dropout&lt;/font&gt;&lt;div&gt;&lt;font&gt;+Dense&lt;/font&gt;&lt;/div&gt;" style="text;html=1;strokeColor=none;fillColor=none;align=left;verticalAlign=middle;whiteSpace=wrap;rounded=0;fontStyle=1;fontSize=8;fontFamily=Verdana;" parent="cS9d9mgXsJHrbwHI3K9Y-5" vertex="1">
          <mxGeometry x="136.82926829268294" y="47.444784553802684" width="83.17073170731706" height="18.555215446197316" as="geometry" />
        </mxCell>
        <mxCell id="cS9d9mgXsJHrbwHI3K9Y-7" value="4x4x512" style="text;html=1;strokeColor=none;fillColor=none;align=center;verticalAlign=middle;whiteSpace=wrap;rounded=0;fontSize=12;fontFamily=Verdana;" vertex="1" parent="1">
          <mxGeometry x="-1405" y="259.9" width="99" height="15" as="geometry" />
        </mxCell>
        <mxCell id="cS9d9mgXsJHrbwHI3K9Y-8" value="512" style="text;html=1;strokeColor=none;fillColor=none;align=center;verticalAlign=middle;whiteSpace=wrap;rounded=0;fontSize=12;fontFamily=Verdana;" vertex="1" parent="1">
          <mxGeometry x="-1293" y="256" width="99" height="15" as="geometry" />
        </mxCell>
        <mxCell id="cS9d9mgXsJHrbwHI3K9Y-9" value="128" style="text;html=1;strokeColor=none;fillColor=none;align=center;verticalAlign=middle;whiteSpace=wrap;rounded=0;fontSize=12;fontFamily=Verdana;" vertex="1" parent="1">
          <mxGeometry x="-1218" y="254.76" width="99" height="15" as="geometry" />
        </mxCell>
        <mxCell id="cS9d9mgXsJHrbwHI3K9Y-10" value="1" style="text;html=1;strokeColor=none;fillColor=none;align=center;verticalAlign=middle;whiteSpace=wrap;rounded=0;fontSize=12;fontFamily=Verdana;" vertex="1" parent="1">
          <mxGeometry x="-1154.5" y="254.76" width="10" height="15" as="geometry" />
        </mxCell>
      </root>
    </mxGraphModel>
  </diagram>
</mxfile>
